# xmcd
#
# Track frame offsets: 
#        150
#        18620
#        34734
#        47350
#        64468
#        78714
#        94349
#        110694
#        130337
#        147024
#        165723
#        182456
#
# Disc length: 2943 seconds
#
# Revision: 0
# Processed by: cddbd v1.5.2PL0 Copyright (c) Steve Scherf et al.
# Submitted via: ExactAudioCopy v0.95b3
#
DISCID=a50b7d0c
DTITLE=Miley Cyrus - Can't be tamed
DYEAR=2010
DGENRE=Folk
TTITLE0=Liberty Walk
TTITLE1=Who owns my heart
TTITLE2=Can't be tamed
TTITLE3=Every rose has its thorn
TTITLE4=Two more lonely people
TTITLE5=Forgiveness and love
TTITLE6=Permanent December
TTITLE7=Stay
TTITLE8=Scars
TTITLE9=Take me along
TTITLE10=Robot
TTITLE11=My heart beats for love
EXTD=
EXTT0=
EXTT1=
EXTT2=
EXTT3=
EXTT4=
EXTT5=
EXTT6=
EXTT7=
EXTT8=
EXTT9=
EXTT10=
EXTT11=
PLAYORDER=
